<svg xmlns="http://www.w3.org/2000/svg" viewBox="0 0 338.9 326.95"><defs><style>.cls-1{fill:#4285f4;}.cls-2{fill:#fbbc05;}.cls-3{fill:#ea4335;}.cls-4{fill:#fbc016;}.cls-5{fill:#34a853;}</style></defs><title>3box.io.min</title><g id="Layer_2"><g id="Layer_2-2"><path id="_Compound_Path_" class="cls-1" d="M234.38,39.88h0L169.81,0,102.27,40.9l-.37-.22v.44l-.32.19.31.19-.16,78.84,64.56,40.51,0,1.22.48-.29.24-.5,1.18.74.1-3.2.18-.32-.17.11,2.42-75,.05,0V82h0L233.5,42.67l-.07,76.68c.75-.08,1.39-1.13,1.9-.74l.08-78.09ZM169.79,2.22,232.58,41,199.7,61.63l-30.26,19-64.91-39.3Zm-3.42,156.43-62.73-39.36V43l65.19,39.47-.06,1.85Z"/><path id="_Compound_Path_2" class="cls-2" d="M303.77,157.33l-1-.62-.05,0L235.16,118l-.49-.28-69.39,42.58,1.14.62-.2.45a3.32,3.32,0,0,1,1.89,1.2v-.74l63.07,34v.75l-1.83,75.57-62.08-36.07L166,235.2c-.5.62.2.23-.51.68l-.11.06v1.23l64.74,37.92,73.45-44,.46-.28ZM234.71,120l66,37.52-68.87,36.46-.06,0-62.63-33.76Zm-3.46,152.11,1.82-75.24,0,0v-1.45h0l68.77-36.08.23,70.42Z"/><path id="_Compound_Path_3" class="cls-3" d="M169.09,160.36l-1.38-.87h0l-.47-.3-1.48.78-.73.07.27.17L99.82,194.9l-64.2-39.55,67-34.44,1.12.7a3,3,0,0,1,.73-1.78l-1.76-1.1L33.21,154l-.47,84.14,67.9,35.56V274l.24-.13.23.12v-.25l65.34-35.94.49-.26,1.27-76.69ZM99.21,270.83,34.63,237V157l64.58,39.78Zm65.85-34.46-63.32,34.44-.63-74.45,65.18-34.52Z"/><path id="_Compound_Path_4" class="cls-1" d="M.45,303c0-6.65,6.61-8.63,12.14-8.63,6.79,0,11.91,3.33,12,8.9A7.08,7.08,0,0,1,18.93,310c3.42.85,6.25,3.73,6.25,7.24,0,6.2-5.57,9.4-12.63,9.4-5.66,0-12.54-2-12.54-8.95H3.91c0,4.72,5.35,5.35,8.72,5.35,5,0,8.63-2,8.63-5.66,0-2.65-2.38-5.62-8.45-5.62H7.73v-3.28h4.81c4.86,0,8.09-2.25,8.14-5.22,0-2.61-2.34-5.35-8-5.35-3.37,0-8.23.85-8.23,5.08H.54Z"/><path id="_Compound_Path_5" class="cls-4" d="M104.76,322.68h17.13v3.64h-21V294.85h3.91Z"/><path id="_Compound_Path_6" class="cls-1" d="M174.32,310.68c0,8.23-5.17,16.27-16,16.27s-16-8-16-16.27c0-9.13,6.11-16.36,16.05-16.36C169.06,294.36,174.36,302.36,174.32,310.68ZM158.4,297.91c-8,0-12.14,5.89-12.14,12.77,0,6.38,3.87,12.59,12.14,12.59s12-6.38,12-12.59C170.45,304.29,166.63,298,158.4,297.91Z"/><path id="_Compound_Path_7" class="cls-5" d="M195.31,294.86h4.13q.11,0,9.44,12.38.68-.75,9.46-12.38h4.22v.09L211,310v.09l12.38,16.16v.09h-4.13l-24-31.37Z"/><path id="_Compound_Path_8" class="cls-5" d="M252.4,324.34c0,3.19-4.86,3.19-4.86,0S252.4,321.11,252.4,324.34Z"/><path id="_Compound_Path_9" class="cls-3" d="M278.07,294.85H282v31.47h-3.91Z"/><path id="_Compound_Path_10" class="cls-4" d="M338.9,310.68c0,8.23-5.17,16.27-16,16.27s-16-8-16-16.27c0-9.13,6.11-16.36,16.05-16.36C333.64,294.36,338.95,302.36,338.9,310.68ZM323,297.91c-8,0-12.14,5.89-12.14,12.77,0,6.38,3.87,12.59,12.14,12.59s12-6.38,12-12.59C335,304.29,331.22,298,323,297.91Z"/><path id="_Path_" class="cls-3" d="M70.14,310.14a6.82,6.82,0,0,0,4.68-6.47c0-6-4.86-8.81-10.57-8.81H50.49v23.64H54.4V298.4h9.85c3.87,0,6.7,1.8,6.7,5.31,0,3.28-2.74,4.68-6.52,4.68H58.67v3.55h5.76c3.42,0,7.42,1.62,7.46,5.58,0,4.27-4.36,5.13-7.64,5.13l-13.76-.09v3.77H64.25c5.93,0,11.55-2,11.55-8.68A7.84,7.84,0,0,0,70.14,310.14Z"/></g></g></svg>